<svg xmlns="http://www.w3.org/2000/svg" width="480" height="175" viewBox="0 0 480 175" role="img" aria-labelledby="title desc">
  <title id="title">Most used languages</title>
  <desc id="desc">Top languages aggregated from owned public repositories.</desc>
  <rect x="10" y="10" width="460" height="155" rx="12" fill="#1f2230"/>
  <text x="240" y="35" text-anchor="middle" fill="#70a5fd" font-size="23" font-family="Segoe UI, Arial, sans-serif" font-weight="700">Most Used Languages</text>
  <rect x="56" y="50" width="178.96" height="11" rx="4" fill="#22c55e"/><rect x="234.96" y="50" width="122.01" height="11" rx="4" fill="#7c3aed"/><rect x="356.97" y="50" width="33.11" height="11" rx="4" fill="#F7DF1E"/><rect x="390.08000000000004" y="50" width="15.93" height="11" rx="4" fill="#06b6d4"/><rect x="406.01000000000005" y="50" width="15.38" height="11" rx="4" fill="#ED8B00"/><rect x="421.39000000000004" y="50" width="2.62" height="11" rx="4" fill="#E34F26"/>
  <circle cx="66" cy="86" r="4.5" fill="#22c55e"/><text x="78" y="90" fill="#d6d9e6" font-size="13" font-family="Segoe UI, Arial, sans-serif">Python 48.63%</text><circle cx="244" cy="86" r="4.5" fill="#7c3aed"/><text x="256" y="90" fill="#d6d9e6" font-size="13" font-family="Segoe UI, Arial, sans-serif">TypeScript 33.15%</text><circle cx="66" cy="113" r="4.5" fill="#F7DF1E"/><text x="78" y="117" fill="#d6d9e6" font-size="13" font-family="Segoe UI, Arial, sans-serif">JavaScript 9.00%</text><circle cx="244" cy="113" r="4.5" fill="#06b6d4"/><text x="256" y="117" fill="#d6d9e6" font-size="13" font-family="Segoe UI, Arial, sans-serif">CSS 4.33%</text><circle cx="66" cy="140" r="4.5" fill="#ED8B00"/><text x="78" y="144" fill="#d6d9e6" font-size="13" font-family="Segoe UI, Arial, sans-serif">Java 4.18%</text><circle cx="244" cy="140" r="4.5" fill="#E34F26"/><text x="256" y="144" fill="#d6d9e6" font-size="13" font-family="Segoe UI, Arial, sans-serif">HTML 0.71%</text>
</svg>